<svg viewBox="0 0 1000 250" fill="none" xmlns="http://www.w3.org/2000/svg">
    <g clip-path="url(#clip0_1_23)">
        <path d="M312.087 68.0598C304.967 58.2567 290.979 49.3177 271.527 42.1413C252.075 34.9649 227.846 29.804 201.274 27.1773C174.702 24.5505 146.725 24.5505 120.153 27.1773C93.5815 29.804 69.3522 34.9649 49.9004 42.1413C30.4486 49.3177 16.4597 58.2567 9.33989 68.0598C2.22004 77.8629 2.22004 88.1848 9.33988 97.9879C16.4597 107.791 30.4485 116.73 49.9003 123.906C69.3521 131.083 93.5815 136.244 120.153 138.87L160.714 83.0238L312.087 68.0598Z" fill="#D9D9D9"/>
        <path d="M9.33989 185.859C16.4597 195.663 30.4486 204.602 49.9004 211.778C69.3522 218.954 93.5815 224.115 120.153 226.742C146.725 229.369 174.702 229.369 201.274 226.742C227.846 224.115 252.075 218.954 271.527 211.778C290.979 204.602 304.967 195.663 312.087 185.859C319.207 176.056 319.207 165.735 312.087 155.931C304.967 146.128 290.979 137.189 271.527 130.013C252.075 122.837 227.846 117.676 201.274 115.049L160.714 170.895L9.33989 185.859Z" fill="#D9D9D9"/>
        <path d="M536.958 106.904C531.101 106.904 526.202 108.931 522.26 112.986C518.374 116.984 516.206 122.137 515.755 128.444H557.569C557.344 122.081 555.345 116.9 551.572 112.901C547.799 108.903 542.928 106.904 536.958 106.904ZM557.654 155.222H577.336C575.984 163.726 571.676 170.624 564.412 175.918C557.147 181.155 548.249 183.774 537.718 183.774C524.315 183.774 513.784 179.663 506.126 171.441C498.467 163.163 494.637 151.871 494.637 137.567C494.637 123.376 498.439 112 506.041 103.44C513.7 94.8805 523.977 90.6006 536.874 90.6006C549.545 90.6006 559.597 94.6834 567.03 102.849C574.464 110.958 578.181 121.827 578.181 135.456V142.298H515.587V143.565C515.587 150.773 517.614 156.574 521.669 160.966C525.78 165.359 531.27 167.555 538.141 167.555C542.984 167.555 547.151 166.457 550.643 164.261C554.191 162.008 556.528 158.995 557.654 155.222ZM592.372 182V60.106H613.406V182H592.372ZM631.905 182V60.106H652.939V182H631.905ZM671.354 182V92.459H692.388V182H671.354ZM690.107 77.4229C687.854 79.6191 685.095 80.7173 681.829 80.7173C678.562 80.7173 675.803 79.6191 673.55 77.4229C671.298 75.1702 670.172 72.4671 670.172 69.3135C670.172 66.1035 671.298 63.4004 673.55 61.2041C675.803 58.9515 678.562 57.8252 681.829 57.8252C685.095 57.8252 687.854 58.9515 690.107 61.2041C692.416 63.4004 693.57 66.1035 693.57 69.3135C693.57 72.4671 692.416 75.1702 690.107 77.4229ZM759.206 90.9385C770.581 90.9385 779.62 95.0776 786.321 103.356C793.023 111.634 796.374 122.925 796.374 137.229C796.374 151.477 793.051 162.74 786.406 171.019C779.761 179.297 770.807 183.436 759.544 183.436C753.124 183.436 747.464 182 742.565 179.128C737.665 176.2 733.977 172.201 731.499 167.133H731.076V211.481H710.043V92.459H730.569V107.917H730.992C733.582 102.624 737.327 98.4847 742.227 95.5C747.126 92.459 752.786 90.9385 759.206 90.9385ZM752.786 166.204C759.6 166.204 764.978 163.613 768.92 158.432C772.862 153.195 774.833 146.127 774.833 137.229C774.833 128.388 772.834 121.349 768.836 116.111C764.894 110.874 759.544 108.255 752.786 108.255C746.253 108.255 740.988 110.902 736.989 116.196C732.991 121.489 730.964 128.501 730.907 137.229C730.964 146.015 732.991 153.054 736.989 158.348C740.988 163.585 746.253 166.204 752.786 166.204ZM808.284 118.139C808.284 109.917 811.607 103.271 818.252 98.2031C824.897 93.1348 833.654 90.6006 844.523 90.6006C854.998 90.6006 863.501 93.1911 870.034 98.3721C876.623 103.497 880.058 110.198 880.339 118.477H860.742C860.404 114.591 858.771 111.55 855.842 109.354C852.914 107.157 849 106.059 844.101 106.059C839.483 106.059 835.766 107.073 832.95 109.1C830.135 111.071 828.727 113.69 828.727 116.956C828.727 121.912 833.007 125.431 841.567 127.515L857.532 131.063C866.486 133.147 872.878 136.075 876.707 139.848C880.537 143.621 882.451 148.83 882.451 155.476C882.451 163.923 878.903 170.765 871.808 176.002C864.712 181.183 855.505 183.774 844.185 183.774C833.035 183.774 824.053 181.24 817.238 176.171C810.481 171.047 806.736 164.204 806.004 155.645H826.699C827.319 159.756 829.177 162.909 832.275 165.105C835.428 167.302 839.652 168.4 844.945 168.4C850.07 168.4 854.097 167.443 857.025 165.528C860.01 163.557 861.502 160.91 861.502 157.587C861.502 154.997 860.573 152.941 858.714 151.421C856.912 149.844 853.843 148.493 849.507 147.366L833.204 143.565C816.591 139.679 808.284 131.204 808.284 118.139ZM934.486 106.904C928.63 106.904 923.73 108.931 919.788 112.986C915.902 116.984 913.734 122.137 913.284 128.444H955.098C954.873 122.081 952.873 116.9 949.1 112.901C945.327 108.903 940.456 106.904 934.486 106.904ZM955.182 155.222H974.864C973.513 163.726 969.205 170.624 961.94 175.918C954.675 181.155 945.778 183.774 935.247 183.774C921.844 183.774 911.313 179.663 903.654 171.441C895.995 163.163 892.166 151.871 892.166 137.567C892.166 123.376 895.967 112 903.569 103.44C911.228 94.8805 921.506 90.6006 934.402 90.6006C947.073 90.6006 957.125 94.6834 964.559 102.849C971.992 110.958 975.709 121.827 975.709 135.456V142.298H913.115V143.565C913.115 150.773 915.142 156.574 919.197 160.966C923.308 165.359 928.799 167.555 935.669 167.555C940.512 167.555 944.679 166.457 948.171 164.261C951.719 162.008 954.056 158.995 955.182 155.222Z" fill="#D9D9D9"/>
    </g>
    <defs>
        <clipPath id="clip0_1_23">
            <rect width="1000" height="250" fill="white"/>
        </clipPath>
    </defs>
</svg>


